<svg width="42" height="39" viewBox="0 0 42 39" fill="none" xmlns="http://www.w3.org/2000/svg">
<path d="M10.3023 8.58984H30.7674M10.3023 8.58984L12.6279 13.436M10.3023 8.58984L1 10M10.3023 8.58984V1M30.7674 8.58984L28.4418 13.436M30.7674 8.58984L41 10M30.7674 8.58984V1M12.6279 13.436H28.4418M12.6279 13.436V32.3078M12.6279 13.436L6.5 14.5M28.4418 13.436V32.3078M28.4418 13.436L35 14.5M12.6279 32.3078H28.4418M12.6279 32.3078C12.6279 33.7052 12.6279 36.7 12.6279 37.5M12.6279 32.3078L6.5 28.5M28.4418 32.3078L35 28.5M28.4418 32.3078V37.5" stroke="#FF3985" stroke-width="2"/>
<path d="M12.6279 38L6.5814 33.2564V28.5128V14.5L1 10.0128V2.42308L10.3023 1H30.7674L41 2.42308V10.0128L34.9535 14.5V28.5128V33.2564L28.4419 38H12.6279Z" stroke="#0077FF" stroke-width="2"/>
</svg>
